# xmcd
#
# Track frame offsets: 
#        150
#        8338
#        21058
#        30201
#        39566
#        49753
#        58592
#        68759
#        79412
#        88467
#        97243
#
# Disc length: 1452 seconds
#
# Revision: 3
# Processed by: cddbd v1.5.2PL0 Copyright (c) Steve Scherf et al.
# Submitted via: ExactAudioCopy v1.3
#
DISCID=8405aa0b
DTITLE=Flatt and Scruggs with Doc Watson - Strictly Instrumental
DYEAR=1967
DGENRE=Bluegrass
TTITLE0=Pick Along
TTITLE1=Nothing to It
TTITLE2=Evelina
TTITLE3=Jazzing
TTITLE4=Liberty
TTITLE5=Tammy's Song
TTITLE6=John Hardy Was a Desperate Little Man
TTITLE7=Lonesome Ruben
TTITLE8=Spanish Two-Step
TTITLE9=Careless Love
TTITLE10=Bill Cheatham
EXTD=Recorded at Columbia Studio, Nashville US-TN, 1966-12-12.\nEarl S
EXTD=cruggs: banjo\nLester Flatt, Doc Watson, Grady Martin: guitars\nB
EXTD=uck Graves: Dobro\nPaul Warren: fiddle\nCharlie McCoy: harmonica\n
EXTD=Jake Tullock: bass\nBuddy Harmon: snare drum\nPreviously released
EXTD=as Columbia LP CS-9443 (1967-04-22).\nCD: County Records CCS-CD-
EXTD=117 (1995-08-22), UPC 009001011725.
EXTT0=(Earl Scruggs)
EXTT1=(Doc Watson)
EXTT2=(Buck Graves/Jake Lambert)
EXTT3=(Lester Flatt/Earl Scruggs)
EXTT4=(Lester Flatt/Earl Scruggs)
EXTT5=(Lester Flatt)
EXTT6=(A.P. Carter)
EXTT7=(Earl Scruggs)
EXTT8=(Bob Wills)
EXTT9=(W.C. Handy/Martha E. Koenig/Spencer Williams)
EXTT10=(Lester Flatt/Earl Scruggs)
PLAYORDER=
